<svg width="174" height="29" viewBox="0 0 174 29" fill="none" xmlns="http://www.w3.org/2000/svg">
<g clip-path="url(#clip0_1804_375)">
<path d="M14.388 16.8882C14.3866 16.9908 14.3645 17.0922 14.3228 17.1866C14.2811 17.2809 14.2207 17.3664 14.1451 17.4382C14.0696 17.5099 13.9802 17.5665 13.8823 17.6046C13.7844 17.6427 13.6798 17.6616 13.5744 17.6603L10.5569 17.6276C10.4516 17.6267 10.3476 17.6055 10.2509 17.5652C10.1542 17.525 10.0666 17.4665 9.99329 17.3932C9.91995 17.3199 9.86224 17.2331 9.82349 17.1378C9.78474 17.0426 9.7657 16.9408 9.76747 16.8382L9.81287 13.8987C9.81446 13.7962 9.83676 13.6949 9.8785 13.6006C9.92024 13.5063 9.98061 13.4209 10.0562 13.3492C10.1317 13.2775 10.221 13.2209 10.3188 13.1828C10.4167 13.1446 10.5212 13.1255 10.6265 13.1266C10.7317 13.1278 10.8356 13.1491 10.9323 13.1894C11.0289 13.2297 11.1164 13.2882 11.1897 13.3615C11.263 13.4348 11.3207 13.5215 11.3595 13.6167C11.3983 13.7118 11.4175 13.8136 11.4159 13.9161L11.4006 14.9725L17.6699 9.02276C17.8223 8.87821 18.027 8.7983 18.2393 8.8006C18.4515 8.8029 18.6537 8.88722 18.8015 9.03502C18.9493 9.18281 19.0305 9.38198 19.0274 9.5887C19.0242 9.79542 18.9368 9.99275 18.7845 10.1373L12.5151 16.087L13.6009 16.0983C13.7061 16.0996 13.8099 16.121 13.9063 16.1614C14.0028 16.2018 14.0901 16.2604 14.1632 16.3337C14.2363 16.4071 14.2938 16.4938 14.3324 16.589C14.3709 16.6841 14.3899 16.7858 14.388 16.8882ZM23.4406 16.9863L23.486 14.0469C23.4877 13.9443 23.4687 13.8424 23.4299 13.7472C23.3912 13.652 23.3335 13.5652 23.2601 13.4918C23.1868 13.4185 23.0993 13.36 23.0025 13.3198C22.9058 13.2796 22.8018 13.2584 22.6965 13.2574L19.679 13.2247C19.4664 13.2224 19.2613 13.3025 19.1087 13.4473C18.9561 13.5921 18.8686 13.7897 18.8654 13.9968C18.8622 14.2039 18.9436 14.4034 19.0916 14.5515C19.2397 14.6995 19.4423 14.784 19.6549 14.7863L20.7402 14.798L14.4708 20.7478C14.3185 20.8923 14.2312 21.0896 14.228 21.2964C14.2248 21.5031 14.306 21.7022 14.4538 21.85C14.6016 21.9978 14.8038 22.0822 15.0161 22.0845C15.2283 22.0868 15.4331 22.0068 15.5854 21.8623L21.8548 15.9126L21.838 16.9703C21.8348 17.1774 21.9161 17.3769 22.0642 17.5249C22.2122 17.673 22.4148 17.7575 22.6274 17.7598C22.84 17.7621 23.0451 17.682 23.1977 17.5372C23.3503 17.3924 23.4378 17.1947 23.441 16.9877L23.4406 16.9863Z" fill="#4A5DCD"/>
</g>
<path d="M41.2198 19.36C41.2198 19.84 41.0998 20.28 40.8598 20.68C40.6198 21.08 40.2998 21.4 39.8998 21.64C39.4998 21.88 39.0598 22 38.5798 22H34.7398C34.2598 22 33.8131 21.88 33.3998 21.64C32.9998 21.4 32.6798 21.08 32.4398 20.68C32.1998 20.28 32.0798 19.84 32.0798 19.36V18.76C32.0798 18.5067 32.1664 18.2933 32.3398 18.12C32.5264 17.9333 32.7464 17.84 32.9998 17.84H33.5598C33.7998 17.84 34.0064 17.9333 34.1798 18.12C34.3664 18.2933 34.4598 18.5067 34.4598 18.76V19.36C34.4598 19.4267 34.4864 19.4933 34.5398 19.56C34.6064 19.6133 34.6731 19.64 34.7398 19.64H38.5798C38.6464 19.64 38.7064 19.6133 38.7598 19.56C38.8131 19.4933 38.8398 19.4267 38.8398 19.36V17.54C38.8398 17.3933 38.7731 17.3 38.6398 17.26L33.8398 15.46C33.3064 15.2733 32.8798 14.9467 32.5598 14.48C32.2398 14.0133 32.0798 13.5 32.0798 12.94V11.14C32.0798 10.6467 32.1998 10.2 32.4398 9.8C32.6798 9.4 32.9998 9.08 33.3998 8.84C33.8131 8.6 34.2598 8.48 34.7398 8.48H38.5798C39.0598 8.48 39.4998 8.6 39.8998 8.84C40.2998 9.08 40.6198 9.4 40.8598 9.8C41.0998 10.2 41.2198 10.6467 41.2198 11.14V11.68C41.2198 11.9333 41.1264 12.1467 40.9398 12.32C40.7664 12.4933 40.5531 12.58 40.2998 12.58H39.7598C39.5064 12.58 39.2864 12.4933 39.0998 12.32C38.9264 12.1467 38.8398 11.9333 38.8398 11.68V11.14C38.8398 10.9533 38.7531 10.86 38.5798 10.86H34.7398C34.6731 10.86 34.6064 10.8867 34.5398 10.94C34.4864 10.9933 34.4598 11.06 34.4598 11.14V12.94C34.4598 13.1 34.5264 13.2 34.6598 13.24L39.4798 15.04C39.9998 15.2267 40.4198 15.5533 40.7398 16.02C41.0598 16.4867 41.2198 16.9933 41.2198 17.54V19.36ZM55.521 21.08C55.521 21.3333 55.4277 21.5533 55.241 21.74C55.0677 21.9133 54.861 22 54.621 22H47.741C47.501 22 47.2877 21.9133 47.101 21.74C46.9277 21.5533 46.841 21.3333 46.841 21.08V9.4C46.841 9.13333 46.9277 8.91333 47.101 8.74C47.2877 8.56667 47.501 8.48 47.741 8.48H54.621C54.861 8.48 55.0677 8.56667 55.241 8.74C55.4277 8.91333 55.521 9.13333 55.521 9.4V9.94C55.521 10.1933 55.4277 10.4133 55.241 10.6C55.0677 10.7733 54.861 10.86 54.621 10.86H49.461C49.301 10.86 49.221 10.9467 49.221 11.12V13.78C49.221 13.9667 49.301 14.06 49.461 14.06H53.901C54.1677 14.06 54.3877 14.1467 54.561 14.32C54.7343 14.4933 54.821 14.7067 54.821 14.96V15.52C54.821 15.7733 54.7343 15.9933 54.561 16.18C54.3877 16.3533 54.1677 16.44 53.901 16.44H49.461C49.301 16.44 49.221 16.52 49.221 16.68V19.38C49.221 19.5533 49.301 19.64 49.461 19.64H54.621C54.861 19.64 55.0677 19.7267 55.241 19.9C55.4277 20.0733 55.521 20.2933 55.521 20.56V21.08ZM70.2745 21.08C70.2745 21.3333 70.1811 21.5533 69.9945 21.74C69.8211 21.9133 69.6078 22 69.3545 22H68.7745C68.4145 22 68.1478 21.8467 67.9745 21.54L63.7145 14.16C63.6878 14.1067 63.6478 14.0933 63.5945 14.12C63.5411 14.1333 63.5145 14.16 63.5145 14.2V21.08C63.5145 21.3333 63.4211 21.5533 63.2345 21.74C63.0611 21.9133 62.8545 22 62.6145 22H62.0545C61.8011 22 61.5811 21.9133 61.3945 21.74C61.2211 21.5533 61.1345 21.3333 61.1345 21.08V9.4C61.1345 9.13333 61.2211 8.91333 61.3945 8.74C61.5811 8.56667 61.8011 8.48 62.0545 8.48H62.6345C62.9945 8.48 63.2611 8.63333 63.4345 8.94L67.6945 16.32C67.7345 16.3733 67.7745 16.3933 67.8145 16.38C67.8678 16.3667 67.8945 16.3333 67.8945 16.28V9.4C67.8945 9.13333 67.9811 8.91333 68.1545 8.74C68.3411 8.56667 68.5611 8.48 68.8145 8.48H69.3545C69.6078 8.48 69.8211 8.56667 69.9945 8.74C70.1811 8.91333 70.2745 9.13333 70.2745 9.4V21.08ZM84.7957 19.36C84.7957 19.84 84.6757 20.28 84.4357 20.68C84.1957 21.08 83.8757 21.4 83.4757 21.64C83.0757 21.88 82.6357 22 82.1557 22H78.5557C78.0757 22 77.629 21.88 77.2157 21.64C76.8157 21.4 76.4957 21.08 76.2557 20.68C76.0157 20.28 75.8957 19.84 75.8957 19.36V11.14C75.8957 10.6467 76.0157 10.2 76.2557 9.8C76.4957 9.4 76.8157 9.08 77.2157 8.84C77.629 8.6 78.0757 8.48 78.5557 8.48H82.1557C82.6357 8.48 83.0757 8.6 83.4757 8.84C83.8757 9.08 84.1957 9.4 84.4357 9.8C84.6757 10.2 84.7957 10.6467 84.7957 11.14V11.68C84.7957 11.9333 84.709 12.1467 84.5357 12.32C84.3624 12.4933 84.1424 12.58 83.8757 12.58H83.3357C83.0824 12.58 82.8624 12.4933 82.6757 12.32C82.5024 12.1467 82.4157 11.9333 82.4157 11.68V11.14C82.4157 10.9533 82.329 10.86 82.1557 10.86H78.5557C78.3824 10.86 78.2957 10.9533 78.2957 11.14V19.36C78.2957 19.4267 78.3224 19.4933 78.3757 19.56C78.429 19.6133 78.489 19.64 78.5557 19.64H82.1557C82.2224 19.64 82.2824 19.6133 82.3357 19.56C82.389 19.4933 82.4157 19.4267 82.4157 19.36V18.76C82.4157 18.5067 82.5024 18.2933 82.6757 18.12C82.8624 17.9333 83.0824 17.84 83.3357 17.84H83.8757C84.1424 17.84 84.3624 17.9333 84.5357 18.12C84.709 18.2933 84.7957 18.5067 84.7957 18.76V19.36ZM99.583 19.36C99.583 19.84 99.463 20.28 99.223 20.68C98.983 21.08 98.663 21.4 98.263 21.64C97.863 21.88 97.423 22 96.943 22H93.103C92.623 22 92.1764 21.88 91.763 21.64C91.363 21.4 91.043 21.08 90.803 20.68C90.563 20.28 90.443 19.84 90.443 19.36V11.14C90.443 10.6467 90.563 10.2 90.803 9.8C91.043 9.4 91.363 9.08 91.763 8.84C92.1764 8.6 92.623 8.48 93.103 8.48H96.943C97.423 8.48 97.863 8.6 98.263 8.84C98.663 9.08 98.983 9.4 99.223 9.8C99.463 10.2 99.583 10.6467 99.583 11.14V19.36ZM97.203 19.36V11.14C97.203 10.9533 97.1164 10.86 96.943 10.86H93.103C93.0364 10.86 92.9697 10.8867 92.903 10.94C92.8497 10.9933 92.823 11.06 92.823 11.14V19.36C92.823 19.4267 92.8497 19.4933 92.903 19.56C92.9697 19.6133 93.0364 19.64 93.103 19.64H96.943C97.0097 19.64 97.0697 19.6133 97.123 19.56C97.1764 19.4933 97.203 19.4267 97.203 19.36ZM114.364 21.08C114.364 21.3333 114.271 21.5533 114.084 21.74C113.911 21.9133 113.698 22 113.444 22H112.864C112.504 22 112.238 21.8467 112.064 21.54L107.804 14.16C107.778 14.1067 107.738 14.0933 107.684 14.12C107.631 14.1333 107.604 14.16 107.604 14.2V21.08C107.604 21.3333 107.511 21.5533 107.324 21.74C107.151 21.9133 106.944 22 106.704 22H106.144C105.891 22 105.671 21.9133 105.484 21.74C105.311 21.5533 105.224 21.3333 105.224 21.08V9.4C105.224 9.13333 105.311 8.91333 105.484 8.74C105.671 8.56667 105.891 8.48 106.144 8.48H106.724C107.084 8.48 107.351 8.63333 107.524 8.94L111.784 16.32C111.824 16.3733 111.864 16.3933 111.904 16.38C111.958 16.3667 111.984 16.3333 111.984 16.28V9.4C111.984 9.13333 112.071 8.91333 112.244 8.74C112.431 8.56667 112.651 8.48 112.904 8.48H113.444C113.698 8.48 113.911 8.56667 114.084 8.74C114.271 8.91333 114.364 9.13333 114.364 9.4V21.08ZM130.326 9.68L126.446 21.38C126.392 21.5533 126.279 21.7 126.106 21.82C125.946 21.94 125.772 22 125.586 22H124.766C124.579 22 124.406 21.94 124.246 21.82C124.099 21.7 123.992 21.5533 123.926 21.38L120.046 9.68C119.939 9.38667 119.979 9.11333 120.166 8.86C120.339 8.60667 120.586 8.48 120.906 8.48H121.486C121.926 8.48 122.219 8.68667 122.366 9.1L125.066 17.34C125.146 17.4333 125.219 17.4333 125.286 17.34C125.566 16.4733 125.852 15.5867 126.146 14.68C126.452 13.76 126.739 12.9 127.006 12.1C127.272 11.2867 127.492 10.6133 127.666 10.08L127.986 9.1C128.052 8.91333 128.166 8.76667 128.326 8.66C128.499 8.54 128.679 8.48 128.866 8.48H129.446C129.766 8.48 130.012 8.60667 130.186 8.86C130.372 9.1 130.419 9.37333 130.326 9.68ZM144.638 21.08C144.638 21.3333 144.545 21.5533 144.358 21.74C144.185 21.9133 143.978 22 143.738 22H136.858C136.618 22 136.405 21.9133 136.218 21.74C136.045 21.5533 135.958 21.3333 135.958 21.08V9.4C135.958 9.13333 136.045 8.91333 136.218 8.74C136.405 8.56667 136.618 8.48 136.858 8.48H143.738C143.978 8.48 144.185 8.56667 144.358 8.74C144.545 8.91333 144.638 9.13333 144.638 9.4V9.94C144.638 10.1933 144.545 10.4133 144.358 10.6C144.185 10.7733 143.978 10.86 143.738 10.86H138.578C138.418 10.86 138.338 10.9467 138.338 11.12V13.78C138.338 13.9667 138.418 14.06 138.578 14.06H143.018C143.285 14.06 143.505 14.1467 143.678 14.32C143.852 14.4933 143.938 14.7067 143.938 14.96V15.52C143.938 15.7733 143.852 15.9933 143.678 16.18C143.505 16.3533 143.285 16.44 143.018 16.44H138.578C138.418 16.44 138.338 16.52 138.338 16.68V19.38C138.338 19.5533 138.418 19.64 138.578 19.64H143.738C143.978 19.64 144.185 19.7267 144.358 19.9C144.545 20.0733 144.638 20.2933 144.638 20.56V21.08ZM159.292 20.74C159.425 21.0467 159.405 21.3267 159.232 21.58C159.032 21.86 158.778 22 158.472 22H157.872C157.698 22 157.525 21.9467 157.352 21.84C157.192 21.7333 157.078 21.6 157.012 21.44L155.132 16.94C155.065 16.78 154.945 16.7 154.772 16.7H152.912C152.738 16.7 152.652 16.7867 152.652 16.96V21.08C152.652 21.3333 152.558 21.5533 152.372 21.74C152.198 21.9133 151.985 22 151.732 22H151.172C150.918 22 150.705 21.9133 150.532 21.74C150.372 21.5533 150.292 21.3333 150.292 21.08V9.4C150.292 9.13333 150.372 8.91333 150.532 8.74C150.705 8.56667 150.918 8.48 151.172 8.48H156.592C157.072 8.48 157.512 8.6 157.912 8.84C158.312 9.08 158.632 9.4 158.872 9.8C159.112 10.2 159.232 10.6467 159.232 11.14V14.06C159.232 14.58 159.092 15.0533 158.812 15.48C158.545 15.8933 158.192 16.2133 157.752 16.44C157.698 16.4533 157.658 16.5 157.632 16.58C157.605 16.6467 157.612 16.7133 157.652 16.78L159.292 20.74ZM156.852 14.06V11.14C156.852 10.9533 156.765 10.86 156.592 10.86H152.912C152.738 10.86 152.652 10.9467 152.652 11.12V14.06C152.652 14.2333 152.738 14.32 152.912 14.32H156.592C156.765 14.32 156.852 14.2333 156.852 14.06ZM173.933 9.94C173.933 10.1933 173.846 10.4133 173.673 10.6C173.5 10.7733 173.28 10.86 173.013 10.86H170.913C170.74 10.86 170.653 10.9467 170.653 11.12V21.08C170.653 21.3333 170.56 21.5533 170.373 21.74C170.2 21.9133 169.986 22 169.733 22H169.213C168.96 22 168.74 21.9133 168.553 21.74C168.38 21.5533 168.293 21.3333 168.293 21.08V11.12C168.293 10.9467 168.206 10.86 168.033 10.86H165.913C165.66 10.86 165.44 10.7733 165.253 10.6C165.08 10.4133 164.993 10.1933 164.993 9.94V9.4C164.993 9.13333 165.08 8.91333 165.253 8.74C165.44 8.56667 165.66 8.48 165.913 8.48H173.013C173.28 8.48 173.5 8.56667 173.673 8.74C173.846 8.91333 173.933 9.13333 173.933 9.4V9.94Z" fill="#4A5DCD"/>
<defs>
<clipPath id="clip0_1804_375">
<rect width="16.8128" height="16.8905" fill="white" transform="matrix(1 0 -0.0261531 0.999658 8.44171 7)"/>
</clipPath>
</defs>
</svg>
